<svg width="1280" height="720" xmlns="http://www.w3.org/2000/svg" xmlns:xlink="http://www.w3.org/1999/xlink" overflow="hidden"><g><rect x="0" y="0" width="1280" height="720" fill="#FFFFFF"/><path d="M0 0 1280 0 1280 720 0 720Z" fill="#FFFFFF" fill-rule="evenodd"/><path d="M0 211 1280 211 1280 720 0 720Z" fill="#D6DCE5" fill-rule="evenodd"/><path d="M0 0 1280 0 1280 214 0 214Z" fill="#00647C" fill-rule="evenodd"/><path d="M459 19.848C459 17.723 460.723 16 462.848 16L732.152 16C734.277 16 736 17.723 736 19.848L736 191.152C736 193.277 734.277 195 732.152 195L462.848 195C460.723 195 459 193.277 459 191.152Z" fill="#F2F2F2" fill-rule="evenodd"/><path d="M15 22.8178C15 19.0524 18.0525 16 21.8178 16L436.182 16C439.948 16 443 19.0524 443 22.8178L443 702.182C443 705.948 439.948 709 436.182 709L21.8178 709C18.0525 709 15 705.948 15 702.182Z" fill="#FFFFFF" fill-rule="evenodd"/><path d="M711 24.0866C711 19.6197 714.162 16 718.064 16L1257.94 16C1261.84 16 1265 19.6197 1265 24.0866L1265 695.913C1265 700.38 1261.84 704 1257.94 704L718.064 704C714.162 704 711 700.38 711 695.913Z" fill="#FFFFFF" fill-rule="evenodd"/><path d="M737 145 709.81 145 696 101 709.81 57 737 57Z" fill="#FFFFFF" fill-rule="evenodd"/><path d="M699 649 462 649 462 236.797C462 232.491 464.934 229 468.553 229L692.447 229C696.066 229 699 232.491 699 236.797L699 649Z" fill="#FFFFFF" fill-rule="evenodd"/><path d="M693.649 703 467.351 703C464.396 703 462 700.604 462 697.649L462 649 699 649 699 697.649C699 700.604 696.604 703 693.649 703Z" fill="#F2F2F2" fill-rule="evenodd"/></g></svg>